<?xml version="1.0" encoding="utf-8"?>
<!-- Generator: Adobe Illustrator 24.3.0, SVG Export Plug-In . SVG Version: 6.00 Build 0)  -->
<svg version="1.1" id="Layer_1" xmlns="http://www.w3.org/2000/svg" xmlns:xlink="http://www.w3.org/1999/xlink" x="0px" y="0px"
	 viewBox="0 0 150 137.6" style="enable-background:new 0 0 150 137.6;" xml:space="preserve">
<style type="text/css">
	.st0{clip-path:url(#SVGID_2_);fill:url(#SVGID_3_);}
	.st1{fill-rule:evenodd;clip-rule:evenodd;fill:#302983;}
	.st2{fill-rule:evenodd;clip-rule:evenodd;fill:#FFFFFF;}
	.st3{fill:#302983;}
</style>
<g>
	<g>
		<defs>
			<path id="SVGID_1_" d="M17.2,46.1c-0.3,0.9-0.7,1.7-1,2.6c-2.2,6.3-3.4,13-3.4,20c0,0.8,0,1.7,0.1,2.5c0,1.2,0.1,2.3,0.2,3.5
				c0.1,1.3,0.3,2.6,0.5,3.8c0.1,0.8,0.3,1.6,0.4,2.4c0.1,0.7,0.3,1.3,0.4,1.9c0.7,2.9,1.6,5.8,2.7,8.5C26.4,114,48.7,130,74.9,130
				c26.1,0,48.5-15.9,57.7-38.5c0.4-0.9,0.7-1.9,1-2.8c0.2-0.6,0.4-1.2,0.6-1.8c0.4-1.2,0.7-2.5,1-3.7c0.3-1.1,0.5-2.3,0.7-3.5
				c0.2-1,0.4-2.1,0.5-3.2c0.1-0.7,0.2-1.3,0.2-2c0.1-1.1,0.2-2.2,0.2-3.3c0-0.8,0.1-1.7,0.1-2.5c0-1,0-2-0.1-2.9
				c-0.3-6.9-1.8-13.6-4.3-19.7c-9.1-22.6-31.5-38.6-57.7-38.6C48.7,7.5,26.3,23.5,17.2,46.1"/>
		</defs>
		<clipPath id="SVGID_2_">
			<use xlink:href="#SVGID_1_"  style="overflow:visible;"/>
		</clipPath>
		
			<radialGradient id="SVGID_3_" cx="0.1429" cy="151.3818" r="1.0705" gradientTransform="matrix(57.6113 0 0 -57.6113 66.675 8790.0234)" gradientUnits="userSpaceOnUse">
			<stop  offset="0" style="stop-color:#FFED00"/>
			<stop  offset="0.1116" style="stop-color:#FFEA00"/>
			<stop  offset="0.2536" style="stop-color:#FFE000"/>
			<stop  offset="0.412" style="stop-color:#FFCF00"/>
			<stop  offset="0.5824" style="stop-color:#FAB500"/>
			<stop  offset="0.7623" style="stop-color:#F39005"/>
			<stop  offset="0.9476" style="stop-color:#EB5F17"/>
			<stop  offset="1" style="stop-color:#E94E19"/>
		</radialGradient>
		<rect x="12.8" y="7.5" class="st0" width="124.2" height="122.5"/>
	</g>
	<g>
		<path class="st1" d="M147.6,58.5c-1-10.1-7.4-12.9-10.1-13.6c-4.8-12.3-13-22.8-24-30.5c-11.4-7.9-24.6-12-38.5-12
			c-13.9,0-27.2,4.2-38.5,12c-10.9,7.7-19.2,18.2-24,30.5c-2.7,0.7-9.1,3.5-10.1,13.6C1.7,65,1.7,73.4,2.6,79.1
			c0.7,8.3,5.7,12.4,9.9,13.5c4.8,12.3,13,22.8,24,30.5c11.4,7.9,24.7,12.1,38.6,12.1c13.9,0,27.2-4.2,38.5-12.1
			c10.9-7.7,19.2-18.2,24-30.5c4.2-1.1,9.2-5.2,10-13.5C148.2,73.4,148.3,65,147.6,58.5 M145.4,78.8L145.4,78.8
			c-0.7,7.6-5.2,11.1-8.9,11.9c-0.3,0.1-0.6,0.3-0.7,0.6c-4.6,12.1-12.7,22.6-23.4,30c-11,7.7-23.9,11.8-37.4,11.8
			c-13.5,0-26.4-4-37.4-11.8c-10.7-7.5-18.8-17.9-23.5-30c-0.1-0.3-0.4-0.6-0.7-0.6c-3.7-0.8-8.1-4.3-8.9-11.9v-0.1
			c-0.8-5.4-0.8-13.7-0.1-20c0.9-9.3,6.6-11.5,9-12c0.3-0.1,0.6-0.3,0.7-0.6c4.6-12.1,12.7-22.5,23.5-30C48.6,8.5,61.5,4.4,75,4.4
			c13.4,0,26.4,4,37.4,11.7c10.7,7.5,18.8,17.9,23.5,30c0.1,0.3,0.4,0.6,0.7,0.6c2.4,0.6,8.1,2.8,9,12
			C146.3,65.1,146.2,73.3,145.4,78.8 M132.6,46c-18-3.1-37.4-4.5-56.8-4.5c-20,0-40.1,1.6-58.6,4.6c-0.3,0.9-0.7,1.7-1,2.6h-4.9
			v22.6h1.6c0,1.2,0.1,2.3,0.2,3.5h-1.8v14.2h2.3v-6h0.5c0.1,0,0.2,0,0.3,0c0.7,2.9,1.6,5.8,2.7,8.5c18.5,3,38.5,4.6,58.6,4.6
			c19.4,0,38.8-1.5,56.8-4.6c0.4-0.9,0.7-1.9,1-2.8c0.2,0.1,0.4,0.2,0.6,0.2c0.4,0.1,0.7,0.1,1.2,0.1c0.9,0,1.7-0.3,2.3-1
			c0.6-0.7,0.9-1.5,0.9-2.5c0-1.2-0.5-2.6-1.6-4.2c-0.4-0.6-0.7-1.1-0.9-1.6c0.2-1,0.4-2.1,0.5-3.2c0.1,0,0.1,0,0.1,0
			c0.2,0,0.4,0,0.6,0.1c0.2,0.1,0.5,0.2,0.8,0.5V75c-0.4-0.2-0.7-0.3-1-0.4c-0.1,0-0.3-0.1-0.4-0.1c0.1-1.1,0.2-2.2,0.2-3.3h1.6
			v-5.5h-1.6C136.6,58.8,135.1,52.2,132.6,46"/>
		<path class="st2" d="M138.5,71.2v-5.5h-1.6c-0.3-6.9-1.8-13.6-4.3-19.7c-18-3.1-37.4-4.5-56.8-4.5c-20,0-40.1,1.6-58.6,4.6
			c-0.3,0.9-0.7,1.7-1,2.6h-4.9v22.6h1.6c0,1.2,0.1,2.3,0.2,3.5h-1.8v14.2h2.3v-6h0.5c0.1,0,0.2,0,0.3,0c0.7,2.9,1.6,5.8,2.7,8.5
			c18.5,3,38.5,4.6,58.6,4.6c19.4,0,38.8-1.5,56.8-4.6c0.4-0.9,0.7-1.9,1-2.8c0.2,0.1,0.4,0.2,0.6,0.2c0.4,0.1,0.7,0.1,1.2,0.1
			c0.9,0,1.7-0.3,2.3-1c0.6-0.7,0.9-1.5,0.9-2.5c0-1.2-0.5-2.6-1.6-4.2c-0.4-0.6-0.7-1.1-0.9-1.6c0.2-1,0.4-2.1,0.5-3.2
			c0.1,0,0.1,0,0.1,0c0.2,0,0.4,0,0.6,0.1c0.2,0.1,0.5,0.2,0.8,0.5V75c-0.4-0.2-0.7-0.3-1-0.4c-0.1,0-0.3-0.1-0.4-0.1
			c0.1-1.1,0.2-2.2,0.2-3.3H138.5z"/>
		<path class="st2" d="M145.5,58.8c-0.9-9.3-6.6-11.5-9-12c-0.3-0.1-0.6-0.3-0.7-0.6c-4.6-12.1-12.7-22.5-23.5-30
			C101.4,8.5,88.4,4.4,75,4.4c-13.5,0-26.4,4-37.3,11.7c-10.7,7.5-18.8,17.9-23.5,30c-0.1,0.3-0.4,0.6-0.7,0.6
			c-2.4,0.6-8.1,2.8-9,12c-0.7,6.3-0.7,14.6,0.1,20v0.1c0.7,7.5,5.2,11.1,8.9,11.9c0.3,0.1,0.6,0.3,0.7,0.6
			c4.6,12.1,12.7,22.6,23.5,30c11,7.7,23.9,11.8,37.4,11.8c13.5,0,26.4-4,37.4-11.8c10.7-7.5,18.8-17.9,23.4-30
			c0.1-0.3,0.4-0.6,0.7-0.6c3.7-0.8,8.2-4.3,8.9-11.9v-0.1C146.2,73.3,146.3,65.1,145.5,58.8 M138.5,71.2h-1.6
			c0,1.1-0.1,2.2-0.2,3.3c0.1,0,0.3,0,0.4,0.1c0.3,0.1,0.6,0.2,1,0.4v2.1c-0.3-0.2-0.6-0.4-0.8-0.5c-0.2-0.1-0.4-0.1-0.6-0.1
			c-0.1,0-0.1,0-0.1,0c-0.1,1.1-0.3,2.1-0.5,3.2c0.2,0.5,0.5,1,0.9,1.6c1.1,1.7,1.6,3.1,1.6,4.2c0,1-0.3,1.9-0.9,2.5
			c-0.6,0.6-1.4,1-2.3,1c-0.4,0-0.8,0-1.2-0.1c-0.2-0.1-0.4-0.1-0.6-0.2c-0.3,0.9-0.7,1.9-1,2.8c0.6-0.1,1.2-0.2,1.7-0.3
			c-9.1,23.6-32.2,40.4-59.3,40.4c-27.1,0-50.2-16.8-59.3-40.4c0.5,0.1,1,0.2,1.5,0.2c-1.1-2.8-2-5.6-2.7-8.5c-0.1,0-0.2,0-0.3,0
			h-0.5v6h-2.3V74.7h1.8c-0.1-1.1-0.2-2.3-0.2-3.5h-1.6V48.7h4.9c0.3-0.9,0.6-1.7,1-2.6C26.3,23.5,48.7,7.5,74.9,7.5
			c26.2,0,48.6,16,57.7,38.6c2.5,6.1,4,12.8,4.3,19.7h1.6V71.2z"/>
		<path class="st3" d="M17.1,76.1c-0.8-0.8-1.8-1.2-3.2-1.3c-0.9,0-1.8-0.1-2.7-0.1v14.2c0.8,0.1,1.5,0.2,2.3,0.4v-6.1
			c0.2,0,0.3,0,0.5,0.1c0.1,0,0.2,0,0.3,0c1.2,0.1,2.1-0.2,2.7-0.9c0.7-0.7,1.1-1.7,1.1-3.1C18.3,78,17.9,76.9,17.1,76.1 M14,81.2
			c-0.1,0-0.1,0-0.2,0c-0.1,0-0.2,0-0.3,0v-4.4l0.2,0c1.5,0.1,2.2,0.8,2.2,2.3C16,80.5,15.3,81.3,14,81.2"/>
		<path class="st3" d="M22.2,75.2v13c1.2,0.1,2.4,0.3,3.6,0.4v2.3c-2-0.2-4-0.5-5.9-0.8v-15C20.7,75.1,21.4,75.1,22.2,75.2"/>
		<path class="st3" d="M29.4,75.4v11.6c0,0.6,0.1,1.1,0.3,1.5c0.2,0.4,0.5,0.6,1,0.7c0.4,0,0.7-0.1,0.9-0.4c0.2-0.3,0.4-0.8,0.4-1.5
			V75.5c0.8,0,1.6,0,2.3,0.1v11.8c0,1.5-0.3,2.6-1,3.3c-0.7,0.8-1.5,1.1-2.6,1c-1.1-0.1-1.9-0.6-2.6-1.5c-0.7-0.9-1-2-1-3.3V75.3
			C27.8,75.4,28.6,75.4,29.4,75.4"/>
		<path class="st3" d="M38.5,75.7c0.7,2,1.5,3.9,2.2,5.9c0.7-1.9,1.5-3.9,2.2-5.8c0.7,0,1.4,0,2.1,0v16.9c-0.7-0.1-1.5-0.1-2.2-0.2
			V81.3l0,0c-0.6,1.7-1.2,3.3-1.8,5c-0.1,0-0.2,0-0.3,0c-0.6-1.7-1.2-3.4-1.8-5.1c0,0,0,0,0,0v11.1c-0.7-0.1-1.5-0.1-2.2-0.2V75.6
			C37.1,75.7,37.8,75.7,38.5,75.7"/>
		<path class="st3" d="M50.2,76c1.2,0,2.1,0.4,2.8,1.2c0.7,0.8,1,1.8,1,3.1c0,0.8-0.1,1.5-0.4,2.1c-0.3,0.6-0.8,1.1-1.5,1.6
			c0.8,0.4,1.3,1,1.7,1.7c0.4,0.7,0.5,1.6,0.5,2.6c0,1.5-0.4,2.7-1.2,3.6c-0.8,0.9-1.9,1.3-3.2,1.2c-0.9-0.1-1.8-0.1-2.7-0.2v-17
			C48.2,75.9,49.2,75.9,50.2,76 M49.5,83.1c0.1,0,0.1,0,0.2,0c0.6,0,1.1-0.2,1.4-0.6c0.3-0.4,0.5-1.1,0.5-2c0-0.7-0.2-1.3-0.5-1.7
			c-0.3-0.4-0.8-0.6-1.5-0.7c0,0-0.1,0-0.1,0V83.1z M49.5,90.9c0.1,0,0.2,0,0.3,0c0.7,0,1.3-0.2,1.6-0.7c0.3-0.5,0.5-1.1,0.5-2
			c0-0.8-0.2-1.5-0.5-2.1c-0.3-0.6-0.9-0.8-1.6-0.9c-0.1,0-0.2,0-0.3,0V90.9z"/>
		<path class="st3" d="M58.4,76.1v17.4c-0.8,0-1.6-0.1-2.3-0.1V76.1C56.9,76.1,57.7,76.1,58.4,76.1"/>
		<path class="st3" d="M62.7,76.1c1,3.3,2,6.6,3,10h0v-9.9c0.7,0,1.5,0,2.2,0v17.6c-0.6,0-1.3,0-1.9,0c-1-3.4-2-6.8-3.1-10.2
			c0,0,0,0,0,0v10.1c-0.7,0-1.5,0-2.2-0.1V76.1C61.4,76.1,62,76.1,62.7,76.1"/>
		<path class="st3" d="M77.5,77.2v2.9c-0.5-0.7-1-1.1-1.4-1.4c-0.4-0.2-0.9-0.4-1.3-0.4c-0.9,0-1.6,0.5-2,1.6
			c-0.5,1.1-0.7,2.7-0.7,5c0,2.1,0.2,3.7,0.6,4.8c0.4,1.1,1.1,1.6,2,1.6c0.3,0,0.5,0,0.7-0.1v-4.6c-0.4,0-0.8,0-1.3,0v-2.5
			c1.2,0,2.4,0,3.6,0v8.5c-0.5,0.4-1,0.8-1.5,1c-0.5,0.2-1,0.3-1.6,0.3c-1.5,0-2.7-0.8-3.5-2.4c-0.9-1.6-1.3-3.8-1.3-6.6
			c0-2.9,0.4-5.1,1.3-6.7c0.9-1.6,2.1-2.4,3.6-2.4c0.5,0,1,0.1,1.5,0.3C76.5,76.4,77,76.7,77.5,77.2"/>
		<path class="st3" d="M83.3,93.2v-2.8c0.3,0.4,0.6,0.7,0.9,0.8c0.3,0.2,0.6,0.2,0.9,0.2c0.4,0,0.7-0.2,0.9-0.5
			c0.2-0.3,0.4-0.7,0.4-1.1c0-0.9-0.5-2.4-1.6-4.5c-1.1-2.1-1.6-3.9-1.6-5.3c0-1.3,0.3-2.3,0.9-3c0.6-0.8,1.3-1.2,2.3-1.2
			c0.3,0,0.6,0,0.9,0.1c0.3,0.1,0.6,0.2,1,0.4V79c-0.3-0.3-0.6-0.5-0.8-0.6c-0.2-0.1-0.4-0.1-0.6-0.1c-0.9,0-1.3,0.5-1.3,1.6
			c0,0.9,0.5,2.3,1.6,4.4c1.1,2.1,1.6,3.8,1.6,5.2c0,1.3-0.3,2.3-0.9,3.1c-0.6,0.8-1.4,1.2-2.3,1.3c-0.4,0-0.8,0-1.2-0.2
			C83.9,93.6,83.6,93.4,83.3,93.2"/>
		<path class="st3" d="M96,76v2.4c-1.1,0-2.2,0-3.4,0.1v4.7c1,0,2-0.1,3.1-0.1v2.4c-1,0-2,0.1-3.1,0.1V91c1.2,0,2.4-0.1,3.5-0.2v2.4
			c-2,0.1-3.9,0.2-5.9,0.3V76.1C92.2,76.1,94.1,76,96,76"/>
		<path class="st3" d="M100.1,75.9c1.2,0,2.2,0.4,2.9,1.2c0.7,0.8,1.1,2,1.1,3.5c0,1.7-0.6,2.9-1.7,3.8c0.4,0.3,0.7,0.8,1,1.4
			c0.3,0.7,0.6,1.7,0.9,3.2c0.3,1.2,0.6,2.5,0.8,3.7c-0.8,0.1-1.7,0.1-2.5,0.2c-0.2-1.1-0.5-2.3-0.7-3.4c-0.3-1.4-0.6-2.4-0.8-3
			c-0.2-0.6-0.6-0.9-0.9-0.9c-0.1,0-0.1,0-0.2,0v7.5c-0.8,0-1.6,0.1-2.3,0.1V76C98.5,76,99.3,76,100.1,75.9 M100,83.3
			c0.1,0,0.1,0,0.2,0c0.5,0,0.9-0.2,1.1-0.7c0.3-0.4,0.4-1,0.4-1.9c0-0.9-0.1-1.6-0.4-2c-0.3-0.4-0.6-0.6-1.2-0.6
			c-0.1,0-0.1,0-0.2,0V83.3z"/>
		<path class="st3" d="M107.4,75.8c0.4,3.5,0.9,7,1.3,10.5c0,0,0,0,0,0c0.4-3.6,0.9-7.1,1.3-10.6c0.8,0,1.6,0,2.4-0.1
			c-0.9,5.5-1.9,11.1-2.8,16.8c-0.6,0.1-1.3,0.1-1.9,0.2c-0.9-5.5-1.9-11.1-2.8-16.8C105.8,75.8,106.6,75.8,107.4,75.8"/>
		<path class="st3" d="M116,75.6v16.2c-0.8,0.1-1.6,0.2-2.3,0.2V75.6C114.4,75.6,115.2,75.6,116,75.6"/>
		<path class="st3" d="M118.9,77.5c0.8-1.5,1.8-2.2,3.2-2.3c0.3,0,0.6,0.1,1,0.2c0.4,0.1,0.8,0.3,1.1,0.6v2.4
			c-0.3-0.3-0.6-0.5-0.9-0.7c-0.3-0.1-0.6-0.2-0.9-0.2c-0.8,0-1.4,0.5-1.7,1.5c-0.3,1-0.5,2.4-0.5,4.4c0,2,0.2,3.5,0.5,4.4
			c0.3,0.9,0.9,1.3,1.7,1.2c0.3,0,0.6-0.1,0.9-0.3c0.3-0.2,0.7-0.5,1.1-1v2.5c-0.4,0.4-0.8,0.7-1.1,0.9c-0.4,0.2-0.8,0.3-1.2,0.4
			c-1.4,0.2-2.4-0.4-3.2-1.7c-0.7-1.3-1.1-3.3-1.1-6C117.7,81,118.1,78.9,118.9,77.5"/>
		<path class="st3" d="M131.7,75v2.1c-1.1,0.1-2.2,0.1-3.3,0.2v4.1c1-0.1,2-0.2,3-0.2v2.1c-1,0.1-2,0.2-3,0.3v4.7
			c1.2-0.1,2.3-0.3,3.5-0.4v2.1c-1.9,0.3-3.9,0.5-5.8,0.8V75.2C127.9,75.2,129.8,75.1,131.7,75"/>
		<path class="st3" d="M136.9,81.5c-0.4-0.6-0.7-1.1-0.9-1.6c-0.4-0.8-0.6-1.5-0.6-1.9c0-0.8,0.4-1.2,1.1-1.3c0.1,0,0.1,0,0.1,0
			c0.2,0,0.4,0,0.6,0.1c0.2,0.1,0.5,0.2,0.8,0.4V75c-0.4-0.2-0.7-0.3-1-0.3c-0.1,0-0.3-0.1-0.4-0.1c-0.2,0-0.3,0-0.5,0
			c-0.9,0-1.7,0.4-2.3,1c-0.6,0.7-0.9,1.5-0.9,2.6c0,1.2,0.5,2.7,1.6,4.3c0.2,0.3,0.4,0.7,0.6,1c0.7,1.2,1,2,1,2.6
			c0,0.3-0.1,0.6-0.4,0.9c-0.2,0.3-0.5,0.4-0.9,0.5c-0.3,0-0.5,0-0.8,0c0,0-0.1,0-0.1,0c-0.3-0.1-0.6-0.3-0.9-0.6v2.3
			c0.1,0.1,0.3,0.2,0.5,0.2c0.2,0.1,0.4,0.1,0.6,0.2c0.4,0.1,0.7,0,1.2,0c0.9-0.1,1.7-0.6,2.3-1.3c0.6-0.7,0.9-1.6,0.9-2.6
			C138.5,84.4,138,83.1,136.9,81.5"/>
		<path class="st3" d="M26.4,60.4c-0.6-1.1-1.6-1.8-3-2.2c1.3-0.7,2.2-1.5,2.7-2.5c0.5-1,0.7-2.1,0.7-3.5c0-0.8-0.1-1.5-0.4-2.1
			c-0.3-0.7-0.7-1.2-1.2-1.6c-0.5-0.4-1.2-0.7-2-0.9c-0.8-0.2-1.8-0.2-2.8-0.1c-3,0.4-6.1,0.8-9.1,1.3v22.6c2.8,0.1,5.6,0.1,8.4,0.2
			c1.2,0,2.3-0.1,3.2-0.5c1-0.3,1.7-0.8,2.4-1.4c0.7-0.6,1.2-1.4,1.5-2.3c0.3-0.9,0.5-1.9,0.5-3C27.3,62.7,27,61.5,26.4,60.4
			 M17.7,51.4c0.1,0,0.2,0,0.3,0c0.9-0.1,1.5,0.1,1.8,0.6c0.4,0.5,0.6,1.2,0.6,2.2c0,2-0.8,3.1-2.4,3.2c-0.1,0-0.2,0-0.3,0V51.4z
			 M20.3,66.8c-0.4,0.6-1,0.9-1.8,0.9c-0.2,0-0.5,0-0.7,0v-6.8c0.2,0,0.4,0,0.7,0c0.8,0,1.4,0.2,1.8,0.8c0.4,0.6,0.6,1.5,0.6,2.6
			C20.8,65.4,20.6,66.2,20.3,66.8"/>
		<path class="st3" d="M40.9,45.2c1.6,8.7,3.2,17.6,4.8,26.6c-2.1,0-4.3,0-6.4-0.1c-0.2-1.5-0.4-2.9-0.6-4.4c-1.1,0-2.2,0-3.3,0
			c-0.2,1.4-0.4,2.9-0.6,4.3c-2.1,0-4.3-0.1-6.4-0.1c1.6-8.4,3.2-16.9,4.8-25.7C35.8,45.6,38.4,45.4,40.9,45.2 M37.1,52.2
			c-0.4,3.4-0.8,6.9-1.2,10.3c0.8,0,1.6,0,2.4-0.1C37.9,59,37.5,55.6,37.1,52.2C37.1,52.2,37.1,52.2,37.1,52.2"/>
		<path class="st3" d="M56.8,43.8c1,0,2.1,0.1,3.1,0.4c1,0.3,2,0.8,2.9,1.6v7.1c-0.9-1.1-1.8-1.8-2.6-2.1c-0.8-0.4-1.6-0.5-2.3-0.5
			c-3,0.1-4.4,2.8-4.4,8.1c0,2.6,0.2,4.4,0.6,5.6c0.4,1.1,1,1.7,1.8,1.7c0.2,0,0.5,0,0.8-0.1c0.4-0.1,0.6-0.2,0.8-0.4v-2.9
			c-0.7,0-1.4,0-2.1,0v-5.7c2.8-0.1,5.5-0.1,8.3-0.2V69c-1.1,1-2.3,1.8-3.6,2.4c-1.3,0.6-2.8,0.9-4.6,0.9c-1.3,0-2.5-0.3-3.6-1
			c-1.1-0.6-2-1.5-2.8-2.7c-0.8-1.2-1.4-2.6-1.8-4.3c-0.4-1.7-0.6-3.5-0.6-5.6c0-2.1,0.2-4.1,0.7-5.9c0.5-1.8,1.1-3.3,2-4.6
			c0.9-1.3,1.9-2.4,3.2-3.1C53.9,44.3,55.3,43.8,56.8,43.8"/>
		<path class="st3" d="M72.1,43.8c0.6,4.4,1.2,8.8,1.8,13.2H74c0.9-4.4,1.7-8.8,2.6-13.2c1.6,0,3.2,0,4.8,0
			c0.8,4.4,1.7,8.8,2.5,13.2c0,0,0,0,0.1,0c0.6-4.4,1.3-8.7,1.9-13.1c2.2,0.1,4.4,0.1,6.6,0.2c-1.8,9.2-3.6,18.4-5.4,27.7
			c-1.9,0-3.7,0-5.6,0c-0.9-4.7-1.8-9.3-2.7-14c0,0,0,0-0.1,0c-0.9,4.7-1.8,9.3-2.7,14c-1.9,0-3.7,0-5.6,0c-1.7-9.4-3.4-18.7-5-28
			C67.7,43.8,69.9,43.8,72.1,43.8"/>
		<path class="st3" d="M107.1,45v5.8c-2-0.1-4-0.2-6-0.3V55c1.8,0.1,3.6,0.1,5.4,0.2V61c-1.8,0-3.6-0.1-5.4-0.1v5
			c2.1,0,4.2,0,6.3,0.1v5.8c-4.3,0-8.5,0.1-12.8,0.1V44.2C98.7,44.4,102.9,44.7,107.1,45"/>
		<path class="st3" d="M116.6,45.9v19.5c2.2,0,4.4,0.1,6.5,0.1v6c-4.3,0.1-8.7,0.1-13,0.2c0-8.8,0-17.6,0-26.4
			C112.3,45.4,114.5,45.6,116.6,45.9"/>
		<path class="st3" d="M132,65.6V47.7c-2.2-0.3-4.3-0.6-6.5-0.8v24.6c4.3-0.1,8.7-0.1,13-0.2v-5.5C136.4,65.7,134.2,65.7,132,65.6"
			/>
	</g>
</g>
</svg>
