<svg xmlns="http://www.w3.org/2000/svg" id="Layer_1" x="0" y="0" version="1.1" viewBox="0 0 637.7 637.8" xml:space="preserve"><style>.st0,.st1,.st2,.st3{fill:none;stroke:#fff;stroke-width:5;stroke-linecap:round;stroke-linejoin:round;stroke-miterlimit:10}.st1,.st2,.st3{stroke:#ffec00}.st2,.st3{stroke:#e5007e}.st3{stroke:#35a8e0}</style><path d="M360.9 142.7l15.7 5.3 2.2-16.4 2.1-16.4-17.8 11.1-17.8 11.1zM328 267l10.8 3.7 10.9 3.6 1.4-11.3 1.5-11.3M201.8 506.9l-3.7 10.8-3.7 10.9 11.3 1.5 11.4 1.4" class="st0"/><path d="M72.6 466.7l-.9-11.4-1-11.5-11 3.2-10.9 3.2M86.4 52.5l-10.8-3.6-10.9-3.7-1.5 11.3-1.5 11.3" class="st1"/><path d="M521.2 395.6l4.7-15.9-16.4-1.5-16.5-1.6 11.7 17.4 11.7 17.5z" class="st2"/><path d="M324.3 504.6l-14.7-7.7-4.7 15.8-4.6 15.9 19.3-8.1 19.3-8.2z" class="st0"/><path d="M77.6 571.1l-13.9-9-6 15.4-6.1 15.4 20-6.5 20-6.4z" class="st3"/><path d="M278.5 299.8c0 8.8-7.1 15.9-15.9 15.9s-15.9-7.1-15.9-15.9 7.1-15.9 15.9-15.9c8.7-.1 15.9 7.1 15.9 15.9z" class="st0"/><path d="M596.2 567.6c0 8.8-7.1 15.9-15.9 15.9s-15.9-7.1-15.9-15.9 7.1-15.9 15.9-15.9 15.9 7.1 15.9 15.9zM479.1 320c0 5.8-4.7 10.5-10.5 10.5s-10.5-4.7-10.5-10.5 4.7-10.5 10.5-10.5 10.5 4.7 10.5 10.5zM257.1 583.5c0 5.8-4.7 10.5-10.5 10.5s-10.5-4.7-10.5-10.5 4.7-10.5 10.5-10.5 10.5 4.7 10.5 10.5z" class="st1"/><path d="M262.5 455.3c0 5.8-4.7 10.5-10.5 10.5s-10.5-4.7-10.5-10.5 4.7-10.5 10.5-10.5c5.9 0 10.5 4.7 10.5 10.5z" class="st3"/><path d="M278 121.2c0 5.8-4.7 10.5-10.5 10.5S257 127 257 121.2s4.7-10.5 10.5-10.5 10.5 4.7 10.5 10.5z" class="st1"/><path d="M588.4 428.4c0 5.8-4.7 10.5-10.5 10.5s-10.5-4.7-10.5-10.5 4.7-10.5 10.5-10.5c5.8.1 10.5 4.8 10.5 10.5zM188.7 40.3c0 5.8-4.7 10.5-10.5 10.5s-10.5-4.7-10.5-10.5 4.7-10.5 10.5-10.5c5.8.1 10.5 4.8 10.5 10.5z" class="st3"/><path d="M135.8 228.1c0 5.8-4.7 10.5-10.5 10.5s-10.5-4.7-10.5-10.5 4.7-10.5 10.5-10.5c5.8.1 10.5 4.7 10.5 10.5z" class="st1"/><path d="M577.9 109.9c0 5.8-4.7 10.5-10.5 10.5s-10.5-4.7-10.5-10.5 4.7-10.5 10.5-10.5c5.9.1 10.5 4.8 10.5 10.5zM436.5 182.8c0 5.8-4.7 10.5-10.5 10.5s-10.5-4.7-10.5-10.5 4.7-10.5 10.5-10.5 10.5 4.7 10.5 10.5zM354.2 381.1c0-.1-.1-.1-.1-.2-3.6-8-13-11.6-21-8-8 3.6-11.6 13-8 21 0 .1.1.1.1.2l29-13zM76.2 379.5v-.2c1.5-8.7-4.4-16.9-13.1-18.3-8.7-1.5-16.9 4.4-18.3 13.1v.2l31.4 5.2zM275.4 47c0 .1 0 .2-.1.2-1.5 8.7 4.2 16.9 12.9 18.5 8.7 1.5 16.9-4.2 18.5-12.9v-.2L275.4 47z" class="st0"/><path d="M396.3 333.8v-.2c-1.3-8.7-9.4-14.7-18.1-13.4-8.7 1.3-14.7 9.4-13.4 18.1v.2" class="st2"/><path d="M476.6 572.7v.2c-.9 8.7 5.4 16.6 14.1 17.5 8.7.9 16.6-5.4 17.5-14.1v-.2" class="st0"/><path d="M557.4 61.7c0-.1.1-.1.1-.2 2.9-8.3-1.5-17.4-9.8-20.2-8.3-2.9-17.4 1.5-20.2 9.8 0 .1 0 .1-.1.2" class="st3"/><path d="M177.4 587.9v-.2c-1.3-8.7-9.5-14.6-18.2-13.3-8.7 1.3-14.6 9.5-13.3 18.2v.2" class="st2"/><path d="M203.1 196.3h31.7V228h-31.7z" class="st0" transform="rotate(-70.105 218.90056586 212.10443826)"/><path d="M349.4 558.4h31.7v31.7h-31.7z" class="st3" transform="rotate(-70.105 365.19652986 574.22647107)"/><path d="M548.5 253.4h31.7v31.7h-31.7z" class="st0" transform="rotate(-70.105 564.29225067 269.18674654)"/><path d="M458.9 63h19.5v19.5h-19.5z" class="st1" transform="rotate(-28.406 468.59007599 72.8064855)"/><path d="M454.4 456h19.5v19.5h-19.5z" class="st0" transform="rotate(-67.25 464.1624687 465.72667757)"/><path d="M240.4 366.9h19.5v19.5h-19.5z" class="st1" transform="rotate(-28.406 250.08621894 376.60370141)"/><path d="M568.2 337.7h19.5v19.5h-19.5z" class="st0" transform="rotate(-28.406 577.86237314 347.43163701)"/><path d="M43.7 259.4h19.5v19.5H43.7z" class="st0" transform="matrix(.3752 -.927 .927 .3752 -216.1265 217.72)"/><path d="M94.6 508.4h19.5v19.5H94.6z" class="st0" transform="rotate(-28.406 104.37428167 518.1615798)"/><path d="M134.6 289.2c6.7-1.7 8.5 10.5 17.1 8.4M106.4 296.2c6.7-1.7 8.5 10.5 17.1 8.4M134.6 289.2c-6.7 1.7-2.6 13.3-11.2 15.4M106.4 296.2c-6.7 1.7-2.6 13.3-11.2 15.4M191.1 275.2c6.7-1.7 8.5 10.5 17.1 8.4M162.8 282.2c6.7-1.7 8.5 10.5 17.1 8.4M191.1 275.2c-6.7 1.7-2.6 13.3-11.2 15.4M162.8 282.2c-6.7 1.7-2.6 13.3-11.2 15.4" class="st3"/><path d="M526.5 153.5c5 4.7-4.2 12.9 2.2 18.9M505.3 133.6c5 4.7-4.2 12.9 2.2 18.9M526.5 153.5c-5-4.7-12.5 5-19-1M505.3 133.6c-5-4.7-12.5 5-19-1M569 193.2c5 4.7-4.2 12.9 2.2 18.9M547.7 173.4c5 4.7-4.2 12.9 2.2 18.9M569 193.2c-5-4.7-12.5 5-19-1M547.7 173.4c-5-4.7-12.5 5-19-1M110.1 83.7l15.2-10.6 10.2 15.1M135.5 88.2l15.2-10.7 10.1 15.1M160.8 92.6L176.1 82l10.1 15.1M186.2 97.1l15.2-10.7 10.2 15.2" class="st2"/><g><path d="M345.6 450.8l15.2-10.7 10.2 15.2M371 455.3l15.2-10.7 10.1 15.1" class="st1"/></g><g><path d="M356.3 59.6l6-17.6 17.1 6.3" class="st2"/><path d="M379.4 48.3l6.1-17.5 17.1 6.3" class="st2"/></g><g><path d="M420.1 547.5l8-16.8 16.3 8.2M444.4 538.9l7.9-16.8 16.3 8.1M468.6 530.2l8-16.7 16.3 8.1" class="st2"/><path d="M492.9 521.6l8-16.8 16.3 8.1" class="st2"/></g><g><path d="M504.6 218.8l-7.5 17-16.5-7.7M480.6 228.1l-7.4 17-16.6-7.6M499.8 206.5L452.4 225" class="st3"/></g><g><path d="M52.3 175.9l2.5-18.4 18 2.7M72.8 160.2l2.4-18.4 18 2.8M60.3 186.3l40.4-30.8" class="st3"/></g><g><path d="M174.4 407.5c6.8 1.4 3.1 13.2 11.8 14.9M145.9 401.6c6.8 1.4 3.1 13.2 11.8 14.9M174.4 407.5c-6.8-1.4-8.1 10.9-16.7 9.1M145.9 401.6c-6.8-1.4-8.1 10.9-16.7 9.1M126.4 424.4l56.9 11.7" class="st2"/></g><g><path d="M299.9 202c-6.8-1.4-3.1-13.2-11.8-14.9M328.4 207.9c-6.8-1.4-3.1-13.2-11.8-14.9M299.9 202c6.8 1.4 8.1-10.9 16.7-9.1M328.4 207.9c6.8 1.4 8.1-10.9 16.7-9.1M347.9 185.1L291 173.4" class="st2"/></g><path d="M406.8 405.5h37.6M153.6 147.5h37.5M144.1 343.4h37.5M126.3 466.7l29.7 22.9M401.5 81.2l29.7 22.9M571.5 478.1l-14.4 34.6M418.4 248.2l-23.1 29.6" class="st0"/></svg>